<?xml version="1.0" encoding="UTF-8" standalone="no"?>
<!-- Created with Inkscape (http://www.inkscape.org/) -->

<svg
   width="328.1947mm"
   height="36.625729mm"
   viewBox="0 0 328.1947 36.625729"
   version="1.1"
   id="svg14011"
   inkscape:version="1.2.2 (732a01da63, 2022-12-09)"
   sodipodi:docname="word_logo.svg"
   xmlns:inkscape="http://www.inkscape.org/namespaces/inkscape"
   xmlns:sodipodi="http://sodipodi.sourceforge.net/DTD/sodipodi-0.dtd"
   xmlns="http://www.w3.org/2000/svg"
   xmlns:svg="http://www.w3.org/2000/svg">
  <sodipodi:namedview
     id="namedview14013"
     pagecolor="#ffffff"
     bordercolor="#000000"
     borderopacity="0.25"
     inkscape:showpageshadow="2"
     inkscape:pageopacity="0.0"
     inkscape:pagecheckerboard="0"
     inkscape:deskcolor="#d1d1d1"
     inkscape:document-units="mm"
     showgrid="false"
     inkscape:zoom="0.73584456"
     inkscape:cx="565.33679"
     inkscape:cy="-18.346266"
     inkscape:window-width="1920"
     inkscape:window-height="1013"
     inkscape:window-x="-9"
     inkscape:window-y="-9"
     inkscape:window-maximized="1"
     inkscape:current-layer="layer1" />
  <defs
     id="defs14008" />
  <g
     inkscape:label="Layer 1"
     inkscape:groupmode="layer"
     id="layer1"
     transform="translate(10.203894,-153.55881)">
    <path
       id="path437-6"
       style="font-style:italic;font-weight:bold;font-size:110px;font-family:Ethna;-inkscape-font-specification:'Ethna Bold Italic';text-align:center;letter-spacing:-5px;text-anchor:middle;fill:#2746a7;fill-opacity:1;stroke-width:1.19026;stroke-linecap:round;stroke-linejoin:round;paint-order:markers stroke fill"
       d="m 18.766042,153.55881 -28.784046,0.0886 c -0.173383,-1e-5 -0.252042,0.32828 -0.118918,0.49658 l 0.9653485,1.221 c 0.1268978,0.16034 0.2874057,0.24829 0.452693,0.24829 h 5.2974192 c 0.1427782,0 0.2578285,0.17434 0.2578285,0.39061 v 0.27554 c 0,0.21632 -0.1150487,0.38984 -0.2578285,0.38984 h -4.461983 c -0.086699,0 -0.12603,0.16421 -0.059459,0.24828 l 0.9728433,1.2301 c 0.1268979,0.16054 0.2869049,0.24829 0.4521951,0.24829 h 4.5993899 c 0.1427798,0 0.2578285,0.17436 0.2578285,0.39061 v 0.27553 c 0,0.21633 -0.1150487,0.38984 -0.2578285,0.38984 h -3.7639563 c -0.1412931,0 -0.1791222,0.13059 -0.068947,0.26418 0.3735017,0.45284 1.3512993,1.32927 3.3242533,1.32927 h 5.130034 c -1.3681131,2.14519 -5.4113599,0.86848 -7.5638884,2.92574 -2.4073924,2.30085 -3.3863224,4.90868 -4.2571241,7.73256 -1.5491125,4.89794 -1.0070875,9.05634 1.6264022,12.47502 2.9045815,3.74743 7.84248458,5.62136 14.8134864,5.62136 4.1438749,0 7.9779989,-1.05206 11.5022279,-3.15587 l 0.416719,-8.66589 c -2.198537,2.96883 -8.297721,5.80604 -10.0017422,5.80604 -2.3236732,0 -3.7371771,-1.29852 -4.240635,-3.89543 -0.4260045,-2.33395 -0.077809,-5.2101 1.0452952,-8.62883 1.123101,-3.35294 2.6722451,-6.21282 4.647361,-8.57962 2.130031,-2.59689 4.279383,-3.91175 6.448139,-3.94464 1.897663,0 3.19527,0.93698 3.892372,2.81068 l 6.796905,-4.53658 c -2.130028,-2.30105 -5.150868,-3.45106 -9.062374,-3.45106 z m 150.802588,0 c -0.17338,-7e-5 -0.25199,0.32822 -0.11892,0.49657 l 0.96585,1.22101 c 0.12688,0.16033 0.28692,0.24828 0.45219,0.24828 h 5.29742 c 0.14278,0 0.25783,0.17434 0.25783,0.39062 v 0.27553 c 0,0.21633 -0.11507,0.38984 -0.25783,0.38984 h -4.46198 c -0.0866,0 -0.12589,0.16421 -0.0595,0.24831 l 0.97285,1.23007 c 0.12688,0.16034 0.28692,0.24831 0.45218,0.24831 h 4.59941 c 0.14277,0 0.25782,0.17433 0.25782,0.39059 v 0.27554 c 0,0.21632 -0.11508,0.38984 -0.25782,0.38984 h -3.76397 c -0.14125,0 -0.17913,0.13059 -0.0688,0.2642 0.37349,0.45284 1.35129,1.32926 3.32426,1.32926 h 5.13653 c -0.79543,1.25258 -1.91778,1.35659 -3.47717,1.61765 l -13.07166,27.61011 h 7.52043 l 2.39537,-5.49415 h 9.38865 v 5.49415 h 13.12513 v -36.62573 z m -135.52941,4.86283 c -3.376916,0 -6.350766,1.63442 -8.92097,4.90298 -2.307559,2.92746 -3.836477,6.50891 -4.586903,10.74381 -0.750424,4.26331 -0.487753,7.85876 0.787969,10.78621 1.407047,3.26853 3.799235,4.90223 7.17615,4.90223 3.395675,0 6.359803,-1.60573 8.892489,-4.81743 2.2888,-2.89904 3.808495,-6.46578 4.558925,-10.70068 0.750427,-4.26331 0.496969,-7.88744 -0.759992,-10.87175 -1.407049,-3.29696 -3.789516,-4.94537 -7.147668,-4.94537 z m 113.54376,0 c -6.04092,0 -9.63382,3.26885 -10.77822,9.80595 -0.35645,2.01795 -0.16854,3.78037 0.56311,5.28675 0.54407,1.08005 1.46316,2.15982 2.75765,3.23987 l 0.81595,0.63963 0.75998,0.5965 c 0.58159,0.48319 1.03165,0.88112 1.35058,1.19378 0.84424,0.9095 1.18217,1.86206 1.01332,2.85684 -0.33769,1.90428 -1.29467,2.68544 -2.87055,2.34436 -1.55713,-0.34107 -2.58887,-1.44954 -3.09541,-3.32541 l -4.08025,4.86058 c 0.69415,1.19375 1.71616,2.14551 3.06693,2.85607 1.35077,0.68215 2.80491,1.02346 4.36205,1.02346 2.51393,0 4.71821,-0.82457 6.61303,-2.47306 2.17624,-1.90428 3.57406,-4.61849 4.19316,-8.14284 0.37522,-2.10325 0.18781,-3.89358 -0.56261,-5.37155 -0.56283,-1.08003 -1.50085,-2.11793 -2.8141,-3.11271 l -0.81645,-0.59651 -0.78797,-0.5117 c -0.60033,-0.42632 -1.05964,-0.78161 -1.37856,-1.06582 -0.863,-0.82423 -1.21014,-1.70545 -1.0413,-2.64337 0.15009,-0.82426 0.50646,-1.50612 1.06927,-2.04613 0.5253,-0.48319 1.13513,-0.72517 1.82927,-0.72517 1.65093,-0.0568 2.68267,0.95234 3.09541,3.02715 l 3.29227,-3.96508 c -0.56282,-1.0516 -1.42559,-1.93207 -2.58875,-2.64262 -1.21943,-0.73895 -2.54201,-1.10897 -3.96781,-1.10897 z m 123.49403,0.38456 c -3.3769,0 -6.35026,1.63441 -8.92046,4.90294 -2.30757,2.92748 -3.83698,6.5082 -4.5874,10.74306 -0.75044,4.26337 -0.48777,7.85876 0.78795,10.78625 1.40706,3.26855 3.79925,4.90296 7.17616,4.90296 3.39567,0 6.3598,-1.60573 8.89249,-4.81742 2.2888,-2.89907 3.80851,-6.46581 4.5589,-10.70068 0.75044,-4.26331 0.49699,-7.88744 -0.75996,-10.87178 -1.40705,-3.29694 -3.78953,-4.94533 -7.14768,-4.94533 z m 40.35672,0 c -6.04091,0 -9.63382,3.26885 -10.7782,9.80591 -0.35647,2.01798 -0.16854,3.77962 0.56309,5.286 0.54406,1.08006 1.46317,2.16059 2.75764,3.24065 l 0.81595,0.63889 0.76002,0.59727 c 0.58155,0.48318 1.03163,0.88109 1.35056,1.19374 0.84424,0.90951 1.18216,1.86132 1.01333,2.85607 -0.33771,1.90429 -1.29468,2.68621 -2.8706,2.34514 -1.55709,-0.34108 -2.58884,-1.44955 -3.09538,-3.32542 l -4.08025,4.85982 c 0.69416,1.19374 1.71667,2.1463 3.06742,2.85684 1.35078,0.68212 2.80443,1.02343 4.36158,1.02343 2.51391,0 4.71821,-0.82455 6.61302,-2.47303 2.17623,-1.90429 3.57407,-4.61852 4.19317,-8.14285 0.37521,-2.10322 0.1878,-3.89358 -0.56261,-5.37154 -0.56282,-1.08006 -1.50087,-2.11794 -2.81411,-3.11269 l -0.81645,-0.59653 -0.78795,-0.51171 c -0.60037,-0.42632 -1.05966,-0.78157 -1.37859,-1.06582 -0.86299,-0.82425 -1.21012,-1.70545 -1.04129,-2.64337 0.15009,-0.82426 0.50646,-1.50609 1.06928,-2.04613 0.52528,-0.48315 1.13512,-0.72519 1.82925,-0.72519 1.65092,-0.0566 2.68269,0.95239 3.09542,3.02717 l 3.29279,-3.96506 c -0.56282,-1.05161 -1.4261,-1.93283 -2.58927,-2.64337 -1.21943,-0.73897 -2.54198,-1.10822 -3.96782,-1.10822 z m -265.785353,0.38304 -5.290428,29.8432 h 7.401001 l 2.223495,-12.70442 1.94169,12.70442 h 7.654335 l -2.02614,-13.0882 c 1.44457,-0.73898 2.654483,-2.0321 3.630052,-3.87953 0.900504,-1.76218 1.416629,-3.6386 1.547937,-5.62816 0.131294,-2.07479 -0.19738,-3.76584 -0.985325,-5.07327 -0.881755,-1.44953 -2.232477,-2.17404 -4.05226,-2.17404 z m 18.672868,0 v 29.8432 h 8.611187 l 10.215086,-29.8432 h -3.461149 l -7.654327,22.3824 v -22.3824 z m 21.430519,0 -10.186625,29.8432 h 4.418026 l 1.407044,-4.4768 h 5.515768 v 4.4768 h 7.710303 v -29.8432 z m 14.311336,0 -5.290436,29.8432 h 13.535856 l 1.29412,-4.4768 h -6.641 l 4.47447,-25.3664 z m 14.95788,0 -5.29043,29.8432 h 13.53586 l 1.29462,-4.4768 h -6.6415 l 4.47447,-25.3664 z m 14.9584,0 -5.29044,29.8432 h 7.40101 l 5.26245,-29.8432 z m 69.55798,0.38451 v 29.84323 h 8.61118 l 10.2151,-29.84323 h -3.46117 l -7.65432,22.38241 v -22.38241 z m 19.31994,0 -5.29042,29.84323 h 7.401 l 5.26244,-29.84323 z m 14.22689,0 -10.18712,29.84323 h 4.41802 l 1.40705,-4.4768 h 5.51577 v 4.4768 h 7.71078 v -29.84323 z m 12.39711,0 -1.26613,4.47604 h 4.67134 l -4.50247,25.36719 h 7.40101 l 4.47448,-25.36719 h 4.67134 l 0.30979,-4.47604 z m 37.20537,0 -5.29092,29.84323 h 7.40148 l 2.223,-12.70518 1.9417,12.70518 h 7.65431 l -2.02612,-13.08819 c 1.4446,-0.73898 2.65448,-2.03285 3.63005,-3.88028 0.90049,-1.76217 1.41664,-3.63783 1.54795,-5.62742 0.13129,-2.07481 -0.19688,-3.76584 -0.98483,-5.07328 -0.88175,-1.44952 -2.23248,-2.17406 -4.05226,-2.17406 z m -97.63503,3.14148 v 16.48175 h -7.04172 z m -151.941292,0.95078 c 1.20068,0 1.904207,1.22177 2.110572,3.66604 0.168847,1.96115 0.01883,4.2208 -0.450193,6.77879 -0.450257,2.55799 -1.097461,4.81764 -1.941691,6.77876 -1.088117,2.4443 -2.223278,3.66604 -3.405199,3.66604 -1.088114,0 -1.763481,-1.09377 -2.02613,-3.28227 -0.225129,-1.96111 -0.09354,-4.34877 0.394234,-7.16253 0.506538,-2.84221 1.219282,-5.22986 2.138553,-7.16256 1.031836,-2.1885 2.091735,-3.28227 3.179854,-3.28227 z m 19.123074,0 h 2.363896 c 0.600342,0 1.031981,0.31261 1.294635,0.9379 0.225129,0.56846 0.271722,1.25029 0.140412,2.04613 -0.131323,0.8242 -0.40322,1.50609 -0.815948,2.0461 -0.469014,0.62532 -1.02252,0.9379 -1.66038,0.9379 h -2.391881 z m 217.914718,0.38378 c 1.20068,0 1.90421,1.22251 2.11058,3.66681 0.16884,1.96112 0.0188,4.22079 -0.4502,6.77878 -0.45026,2.558 -1.09747,4.81762 -1.94169,6.77873 -1.08811,2.44433 -2.22278,3.66607 -3.40469,3.66607 -1.08813,0 -1.76398,-1.09376 -2.02664,-3.28226 -0.22513,-1.96112 -0.0935,-4.34877 0.39424,-7.16254 0.50654,-2.8422 1.21927,-5.22983 2.13855,-7.16256 1.03183,-2.1885 2.09174,-3.28303 3.17985,-3.28303 z m 19.12306,0 h 2.36392 c 0.60034,0 1.03198,0.31263 1.29463,0.9379 0.22513,0.56846 0.27223,1.25105 0.14084,2.04687 -0.13131,0.82425 -0.4037,1.50609 -0.81645,2.04613 -0.469,0.62529 -1.02201,0.93789 -1.65987,0.93789 h -2.39239 z m -202.365223,2.60025 v 13.42959 h -4.136691 z m 147.331933,0.38452 v 13.42961 h -4.13671 z" />
  </g>
</svg>
